<svg xmlns="http://www.w3.org/2000/svg" width="102" height="64.991" viewBox="0 0 102 64.991">
  <g id="judo" transform="translate(-1.487 -3.5)">
    <g id="Group_1" data-name="Group 1" transform="translate(5.612 3.5)">
      <path id="Path_1" data-name="Path 1" d="M14.088,19.944A4.444,4.444,0,1,1,9.644,15.5,4.457,4.457,0,0,1,14.088,19.944Z" transform="translate(-5.2 -2.169)" fill="#6a4ee1"/>
      <path id="Path_2" data-name="Path 2" d="M14.088,7.944A4.444,4.444,0,1,1,9.644,3.5,4.457,4.457,0,0,1,14.088,7.944Z" transform="translate(-5.2 -3.5)" fill="#6a4ee1"/>
      <path id="Path_3" data-name="Path 3" d="M20.788,13.944A4.444,4.444,0,1,1,16.344,9.5,4.457,4.457,0,0,1,20.788,13.944Z" transform="translate(-4.457 -2.834)" fill="#6a4ee1"/>
    </g>
    <g id="Group_2" data-name="Group 2" transform="translate(1.487 16.831)">
      <path id="Path_4" data-name="Path 4" d="M22.777,29.644V44.42c0,2.888,1,5.666,5.666,5.666s5.666-2.777,5.666-5.666V29.644a3.444,3.444,0,1,1,6.888,0V44.42c0,6.221-2.333,11.887-12.443,11.887C18.333,56.307,16,50.641,16,44.42V29.644A3.461,3.461,0,0,1,19.444,26.2,3.368,3.368,0,0,1,22.777,29.644Z" transform="translate(0.123 -14.313)" fill="#6a4ee1"/>
      <path id="Path_5" data-name="Path 5" d="M61.175,29.5V18.944a3.444,3.444,0,1,1,6.888,0V44.718c0,8.443-5.444,12.665-13.109,12.665-8.554,0-13.554-4.888-13.554-15.22s4.888-15.22,12.887-15.22A10.976,10.976,0,0,1,61.175,29.5Zm0,6.555s-2.444-3.222-6.221-3.222c-4.333,0-6.777,3.111-6.777,9.443,0,6.221,2.444,9.332,6.777,9.332,3.666,0,6.221-2.444,6.221-6.777Z" transform="translate(2.941 -15.5)" fill="#6a4ee1"/>
      <path id="Path_6" data-name="Path 6" d="M82.187,56.24c-8.554,0-13.887-4.888-13.887-15.22S73.633,25.8,82.187,25.8s13.887,4.888,13.887,15.22C96.074,51.463,90.741,56.24,82.187,56.24Zm0-24.552c-4.555,0-7,3.111-7,9.443,0,6.221,2.444,9.332,7,9.332s7-3.111,7-9.332C89.186,34.8,86.742,31.688,82.187,31.688Z" transform="translate(5.926 -14.357)" fill="#6a4ee1"/>
      <path id="Path_7" data-name="Path 7" d="M4.834,65.972a3.24,3.24,0,0,1-3.111-2.111,3.4,3.4,0,0,1,1.889-4.444c3-1.222,3.111-2.666,3.111-11.332V29.644a3.444,3.444,0,1,1,6.888,0V48.086c0,8.221,0,14.665-7.332,17.664A7.646,7.646,0,0,1,4.834,65.972Z" transform="translate(-1.487 -14.313)" fill="#6a4ee1"/>
    </g>
  </g>
</svg>
